<svg width="1800" height="219" viewBox="0 0 1800 219" fill="none" xmlns="http://www.w3.org/2000/svg">
<g id="logo">
<g id="draper logo">
<path id="Vector" d="M105.265 13.4062H0V217.315H105.265C166.007 217.315 180.504 187.514 180.504 148.311V82.4413C180.504 43.2389 166.007 13.4376 105.265 13.4376V13.4062ZM132.693 148.687C132.693 167.521 124.459 176.138 102.541 176.138H48.5936V54.5828H102.541C124.49 54.5828 132.693 63.2005 132.693 82.0339V148.687Z" fill="#10181F"/>
<path id="Vector_2" d="M493.983 100.084V70.6586C493.983 34.5899 476.355 13.4062 422.689 13.4062H313.51V217.315H362.104V157.712H418.776L458.728 217.315H513.959L466.931 147.904C487.69 136.529 493.952 123.21 493.952 100.053L493.983 100.084ZM446.579 97.3263C446.579 111.835 439.91 118.886 421.5 118.886H362.073V53.016H423.065C439.91 53.016 446.579 58.4999 446.579 73.0089V97.3263Z" fill="#10181F"/>
<path id="Vector_3" d="M697.844 13.4062L619.756 217.315H668.35L728.027 57.0584L787.705 217.315H836.299L758.211 13.4062H697.844Z" fill="#FF4611"/>
<path id="Vector_4" d="M1052.59 13.4062H946.169V217.315H994.763V159.687H1050.28C1103.94 159.687 1123.95 138.91 1123.95 102.058V70.69C1123.95 34.6213 1106.7 13.4376 1052.66 13.4376L1052.59 13.4062ZM1075.7 99.6765C1075.7 113.809 1069.03 120.453 1050.62 120.453H994.731V53.016H1050.62C1069.03 53.016 1075.7 59.2834 1075.7 73.0089V99.6765Z" fill="#10181F"/>
<path id="Vector_5" d="M1242.15 217.315H1398.73V177.329H1290.74V133.395H1391.68V93.0018H1290.74V53.392H1398.73V13.4062H1242.15V217.315Z" fill="#10181F"/>
<path id="Vector_6" d="M1521.59 13.4024V217.311H1570.18V157.709H1626.85L1666.8 217.311H1722.03L1675.01 147.9C1695.76 136.525 1702.03 123.207 1702.03 100.049V70.6235C1702.03 34.5548 1684.4 13.3711 1630.73 13.3711H1521.55L1521.59 13.4024ZM1654.69 73.0051V97.3225C1654.69 111.831 1648.02 118.882 1629.61 118.882H1570.18V53.0122H1631.17C1648.02 53.0122 1654.69 58.4961 1654.69 73.0051Z" fill="#10181F"/>
<path id="Vector_7" d="M1775.48 50.6297C1761.77 50.6297 1751.09 39.5992 1751.09 26.2184C1751.09 12.8375 1761.9 1.68164 1775.61 1.68164C1789.32 1.68164 1800 12.7122 1800 26.093C1800 39.4738 1789.2 50.6297 1775.48 50.6297ZM1775.64 3.78121C1762.93 3.78121 1753.35 13.9343 1753.35 26.2184C1753.35 38.5024 1762.87 48.5302 1775.52 48.5302C1788.16 48.5302 1797.81 38.3771 1797.81 26.093C1797.81 13.809 1788.29 3.78121 1775.64 3.78121ZM1780.15 27.9106L1787.91 37.9697H1783.31L1776.08 28.506H1769.66V37.9697H1765.93V12.9002H1777.14C1782.69 12.9002 1786.6 15.8145 1786.6 20.4837C1786.6 24.6202 1783.91 27.0331 1780.12 27.9106H1780.15ZM1777.05 16.2846H1769.69V25.2156H1776.86C1780.37 25.2156 1782.81 23.5861 1782.81 20.6718C1782.81 17.7574 1780.65 16.2846 1777.08 16.2846H1777.05Z" fill="#10181F"/>
</g>
</g>
</svg>
