<?xml version='1.0' encoding='utf-8'?>
<svg xmlns="http://www.w3.org/2000/svg" id="Layer_1" data-name="Layer 1" viewBox="0 0 960 960" fill="#FFFFFF">
  <defs>
    <style>
      .cls-1 {
        fill: #3a3a37;
      }

      .cls-1, .cls-2, .cls-3, .cls-4 {
        stroke-width: 0px;
      }

      .cls-2, .cls-3 {
        fill: #fff;
      }

      .cls-3 {
        fill-rule: evenodd;
      }

      .cls-4 {
        fill: #da3553;
      }
    </style>
  </defs>
  <path class="cls-4" d="M398.08,405.07c-1.78-25.6-2.1-52.14-18.04-70.68-12.69-14.85-26.54-22.86-43.11-27.7-31.15-9.06-58.74-8.32-90.42-9.16-69.54-1.9-136.15-6.11-179.16,12.64-43.74,14.33-46.68,119.34-44.16,163.69,1.78,31.49,1.36,77.63,15.1,106.91,18.46,39.5,59.58,39.39,98.39,44.13,18.46,2.32,74.47,2.84,93.98,2.95,7.76,12.43,29.16,21.49,38.5,27.18,9.34,5.69,40.17,13.59,42.48,6.53,2.31-7.06-12.17-21.17-6.92-40.97,26.01-5.27,33.57-2.74,51.29-8.43,26.96-8.53,36.92-40.45,41.54-74.57,4.3-31.49,2.73-100.8.42-132.51h.1Z" />
  <path class="cls-1" d="M823.73,491.86c0-21.49,16.26-37.08,37.13-37.08s34.61,14.85,34.61,37.08-13.95,36.97-34.61,36.97-37.13-15.59-37.13-36.97ZM914.78,546.84c14.06-14.33,21.92-33.92,21.92-54.98s-7.76-40.66-21.92-54.98c-14.06-14.32-33.25-22.22-54.02-22.22-11.85,0-24.34,2.53-34.82,7.48-.21.11-.52.21-.84.11-.32,0-.52-.11-.84-.21-.21-.11-.42-.42-.63-.63-.1-.21-.21-.53-.21-.84v-58.46c0-.84-.32-1.69-.95-2.21-.63-.63-1.36-.95-2.2-.95h-34.61c-.84,0-1.68.32-2.31.95-.63.63-.94,1.37-.94,2.32v129.87c0,43.19,34.82,77,77.93,77.21h.42c20.77,0,39.86-7.9,54.02-22.22v-.21ZM688.74,528.83c-20.87,0-35.98-15.59-35.98-37.08s15.1-37.08,35.98-37.08,35.98,15.59,35.98,37.08-15.1,37.08-35.98,37.08ZM688.74,414.55c-43.32,0-77.2,33.92-77.2,77.21s33.88,77.21,77.2,77.21,77.2-33.92,77.2-77.21-33.99-77.21-77.2-77.21ZM480.52,526.2v-39.71c0-.95.52-1.79,1.36-2.11l43.01-.21c12.9,0,21.82,9.16,21.82,22.23s-9.02,22.22-21.82,22.22h-42.06c-.63,0-1.26-.21-1.68-.74-.42-.42-.73-1.05-.73-1.69h.1ZM480.73,401.27c0-1.26,1.05-2.42,2.41-2.42h38.7c9.44,0,16.68,5.48,19.3,14.11,1.99,6.43.73,13.38-3.25,18.85-4.09,5.58-10.7,8.43-17.62,8.43h-37.13s-.63,0-.95-.21c-.31-.21-.52-.32-.73-.53-.21-.21-.42-.53-.52-.74-.11-.32-.21-.63-.21-.95v-36.65.11ZM595.07,508.19c0-19.49-8.71-36.02-24.65-46.45-.42-.21-.63-.53-.84-.95-.21-.42-.31-.84-.21-1.26,0-.63.42-1.27.94-1.79,11.22-10.22,17.2-24.02,17.2-39.92,0-34.44-27.59-59.51-65.66-59.51h-78.77c-.63,0-1.15.11-1.68.32-.52.21-1.05.53-1.47.95-.42.42-.73.95-.95,1.47-.21.53-.31,1.16-.31,1.69v201.81c0,2.42,1.99,4.42,4.41,4.42h84.75c38.81,0,67.13-25.6,67.13-60.88l.11.1Z" />
  <path class="cls-2" d="M202.45,492.18c1.47,10.64,2.62,57.41,4.2,72.36.21,3.16,1.15,4.95,4.3,4.95,2.52.21,7.13.32,13.74.32,7.76,0,15.52-.21,22.03-.21,11.12.1,5.77-20.86,5.87-32.34-1.05-22.22-1.78-77-2.94-102.07-.21-5.27-.95-46.03-1.26-55.19-.21-4,.52-12.85-.73-15.59-1.57-2.53-8.5-3.37-12.48-3.05-10.28,0-18.78.11-26.96,1.47-7.34,1.16-10.07,4-10.18,10.32,0,1.9.11,14.33.21,27.49.1,12.11.31,25.07.31,31.92-.21,6.85-11.96,3.37-18.57,4.21-10.8-.21-38.18.63-43.53.95-3.36,0-3.67-2.95-4.3-6.21-1.47-14.96-3.36-38.02-3.99-53.72-.21-8.64-.63-15.69-3.46-16.12-7.13-1.37-39.96-.84-41.85,2.74-1.68,4.95-1.15,16.54-1.05,24.86.31,42.55,4.09,94.17,4.72,135.25.42,12.54.73,38.24.73,39.5,0,4.32.52,5.37,4.72,5.9,13.22.74,29.47-.32,42.69,0,6.82.42,3.57-12.32,4.3-17.38.1-11.38-.31-29.7-1.15-39.5-.52-22.33-6.5-22.12,16.15-23.28,3.99-.32,22.55-.95,33.46-1.26,7.03.53,12.48-2.84,14.89,3.69h.1Z" />
  <path class="cls-3" d="M336.5,378.74c-1.47-12.85-10.91-21.49-23.7-21.49-3.57,0-7.24.63-10.8,2-1.89.74-3.78,1.69-5.35,2.84-3.67,2.74-6.61,6.32-8.5,10.53-1.89,4.21-2.62,8.74-2.1,13.38.94,8.64,6.08,15.48,14.06,18.96,3.78,1.58,8.39,2.53,12.8,2.53,3.88,0,9.44-.74,13.74-4.21,8.18-6.43,11.12-13.8,9.86-24.44v-.11Z" />
  <path class="cls-2" d="M335.45,470.07c0-9.9-.21-16.85,0-27.18.84-11.27-11.54-8.85-20.03-9.16-6.61,0-13.11.11-19.51.11-3.99.11-5.77.32-5.56,3.79-2.1,42.76-.21,70.05-1.05,110.49-.63,27.39.21,19.38,24.02,20.96,5.35,0,15.63,1.16,19.72-.95,2.1-1.37,1.57-3.69,2.1-6.74-.21-39.61,0-42.76.32-91.32Z" />
</svg>