<?xml version="1.0" encoding="UTF-8" standalone="no"?>
<!-- Created with Inkscape (http://www.inkscape.org/) -->

<svg
   version="1.1"
   id="svg2"
   xml:space="preserve"
   width="322.13333"
   height="898.09332"
   viewBox="0 0 322.13333 898.09332"
   xmlns="http://www.w3.org/2000/svg"
   xmlns:svg="http://www.w3.org/2000/svg"><defs
     id="defs6" /><g
     id="g8"
     transform="matrix(1.3333333,0,0,-1.3333333,0,898.09333)"><g
       id="g10"
       transform="scale(0.1)"><path
         d="M 7.05078,4537 V 6735.71 H 2363.17 C 2469.16,6002.44 2427.6,5306.71 2127.66,4537 H 7.05078"
         style="fill:#38a09c;fill-opacity:1;fill-rule:nonzero;stroke:none"
         id="path12" /><path
         d="m 963.035,5904.79 -9.937,-8.48 c 21.902,-7.86 45.718,7.27 50.512,20.26 l 1.1,14.03 c -17.386,-3.93 -34.593,-12.55 -41.675,-25.81"
         style="fill:#33439f;fill-opacity:1;fill-rule:nonzero;stroke:none"
         id="path14" /><path
         d="m 1081.96,5836.44 -17.31,1.07 c 0.04,-15.22 4.89,-27.57 21.05,-37.39 l 12.91,-2.89 c 17.66,15.19 -5.93,30.62 -16.65,39.21"
         style="fill:#33439f;fill-opacity:1;fill-rule:nonzero;stroke:none"
         id="path16" /><path
         d="m 908.215,6194.4 -12.895,-9.15 c 26.282,-9.43 47.793,4.58 57.27,23.49 l 4.246,17.25 c -20.867,-4.72 -36.981,-4.58 -48.621,-31.59"
         style="fill:#33439f;fill-opacity:1;fill-rule:nonzero;stroke:none"
         id="path18" /><path
         d="m 909.543,6107.71 -3.867,14.15 c -20.863,-4.72 -36.34,-12.38 -44.836,-28.31 v -11.19 c 26.277,-9.44 40.183,14.15 48.703,25.35"
         style="fill:#33439f;fill-opacity:1;fill-rule:nonzero;stroke:none"
         id="path20" /><path
         d="m 844.688,5979.79 8.652,-5.2 c 28.75,-9.35 30.683,13.87 37.765,23.21 l 11.075,9.7 c -26.672,5.19 -50.41,-14.45 -57.492,-27.71"
         style="fill:#33439f;fill-opacity:1;fill-rule:nonzero;stroke:none"
         id="path22" /><path
         d="m 1014.36,6387.7 -10.37,-4.94 c 2.86,-18.34 44.43,-38.8 54.86,-24.16 l 1.53,17.43 c -13.59,9.16 -27.51,14.11 -46.02,11.67"
         style="fill:#33439f;fill-opacity:1;fill-rule:nonzero;stroke:none"
         id="path24" /><path
         d="m 1158.84,6434.57 -16.01,4.87 c -8.61,-12.18 -13.14,-21.47 -4.08,-42.51 l 8.32,-16.62 c 18.93,18.47 37.64,35.88 11.77,54.26"
         style="fill:#33439f;fill-opacity:1;fill-rule:nonzero;stroke:none"
         id="path26" /><path
         d="m 1672.53,6030.05 c -18.03,24.07 -52.2,57.01 -23.86,88.95 14.81,11.3 19.21,19.85 20.95,35.52 6.01,54.22 3.24,77.77 -4.38,107.56 1.29,2.65 6.92,-0.69 9,9 5.6,26.15 -9,31.18 -9,31.18 11.08,9.7 10.04,46.06 -7.62,45.72 9.69,15.93 1.38,41.56 -15.96,36.02 0,0 8.78,4.53 7.62,16.17 -2.31,23.09 -35.32,0.46 -26.79,15.7 4.49,8.03 -14.06,35.33 -23.53,14.18 -5.58,3.74 3.93,16.99 -6.15,21.08 -5.92,-0.25 -12.11,-4.96 -19.73,-9.17 -2.15,8.8 6.95,13.39 -4.23,25.71 -15.15,10.54 -16.19,-5.04 -26.6,-10.82 -19.37,4.39 26.35,15.82 -14.66,33.14 -10.52,-25.11 -9.68,-6.51 -14.33,-3.09 -2.78,2.05 -9.09,-4.53 -20.66,-16.31 6.03,16.63 19.89,37.07 -0.34,31.18 -23.07,-10.39 -9.57,3.17 -9.82,4.86 20,8.99 -18.45,30.47 -16.9,7.79 -0.51,-15.42 -33.76,-28.59 -24.36,-9.96 6.25,23.43 34.94,-12.39 10.19,29.32 -15.43,-17.47 -27.92,-29.03 -30.51,-35.4 -11.94,-47.88 -5.36,-4.23 -17.83,-3.54 16.63,11.08 37.97,30.83 31.73,43.64 -18.01,1.39 -59.44,-28.05 -33.25,-30.48 -1.94,-9.35 -17.18,-20.43 -25.98,-4.15 14.57,3.83 39.63,52.64 8.46,38.09 -2.96,-2.93 -2.95,-11.61 -8.54,-19.8 -7.4,6.64 -1.49,16.92 -4.06,21.18 -24.82,22.87 -16.16,-36.7 -15.26,-49.87 -32.42,20.09 -1.94,14.55 -10.39,47.8 -26.88,-4.85 -34.15,-16.28 -29.65,-46.41 -3.67,-7.27 -10.39,-23.9 -14.89,-3.46 14.55,19.05 13.16,46.41 -12.24,47.22 40.99,-374.89 37.97,-753.81 -20.51,-1125.34 l -3.18,-19.89 c 29.46,0.34 72.18,9.16 103.06,10.69 88.87,-2.96 87.07,-14.52 234.13,-12.58 33.89,3.28 43.35,8.84 54.3,8.35 -10.77,45.47 -85.02,19.7 -122.73,32.81 -63.88,6.12 -74.87,44.53 -95.15,72.91 -9.19,15.82 -22.49,35.68 -22.18,62.01 -4.97,34.16 1.61,52.22 0.97,85.62 2.9,24.67 30.95,19.72 48.35,17.57 55.33,-5.47 148.3,3.49 172.77,10.86 34.97,10.57 35.79,32.28 12.22,64.57 -5.08,15.96 -4.18,25.89 2.91,40.13 9.65,10.81 22.1,18.04 12.79,31.42 0,0 -80.28,16.87 -25.01,26.17 56.64,9.54 37.81,32.58 37.81,32.58 0,-0.01 -9.31,23.27 -18.03,40.72 -6.4,12.79 47.12,16.86 52.93,37.23 12.79,17.44 -27.75,56.18 -41.88,75.62 z m -119.52,20.97 c -34.64,-7.85 -86.84,15.84 -80.01,20.44 17.66,11.89 57.84,32.67 96.64,18.82 6.6,-2.36 9.35,-8.89 10.04,-17.32 1.74,-19.74 -14.2,-20.2 -26.67,-21.94"
         style="fill:#33439f;fill-opacity:1;fill-rule:nonzero;stroke:none"
         id="path28" /><path
         d="M 1265.27,5393.37 C 1219.92,5114.65 1143.04,4831.14 1028.41,4537 H 7.05078 V 6735.71 H 1263.94 c 10.46,-72.39 17.41,-125.42 24.89,-197.18 0,0 -21.57,-6.69 -19.51,-24.29 2.25,-19.32 10.73,-23.9 10.73,-23.9 l -9.35,-4.51 c 0,0 -10.35,15.09 -10.39,14.55 0,14.81 6.25,37.06 -27.71,28.75 -11.78,-25.98 18.7,-31.52 10.74,-49.18 -36.03,-2.08 -10.72,27.01 -39.4,10.73 1.93,8.36 -4.15,30.58 -13.16,29.1 -3.93,-12.59 -13.5,-33.61 0.68,-46.38 -4.5,-3 -17.82,-0.92 -20.89,3.66 -4.21,6.29 9.58,17.09 -1.5,36.48 -33.25,-14.31 -2.42,-46.41 -29.9,-58.53 -30.14,3.81 17.43,29.44 -6.58,51.61 -27.02,-6.24 -37.53,-34.41 -26.44,-51.04 -0.64,-14.74 -12.09,-22.14 -14.03,-34.91 -13.57,2.13 -19.32,7.07 -20.84,12.17 -1.73,9.35 24.59,14.2 6.93,34.98 -28.75,-4.5 -9.7,-50.91 -32.56,-25.98 -2.43,10.74 -9.7,20.44 -15.35,21.57 -10.94,-7.86 -16.1,-20.14 -9.02,-30.95 l 11.55,-15.21 c -1.49,0.4 4.91,-8.41 3.47,-7.96 -19.06,15.24 -44.464,25.78 -60.616,8.66 2.082,-15.94 15.925,-16.98 37.746,-21.83 -27.571,-2.53 -32.715,-12.3 -41.742,-17.71 -3.219,18.19 -24.54,21 -44.5,23.95 -11.083,-2.77 -18.418,5.04 -23.567,1.11 8.371,-20.63 28.535,-36.38 53.012,-41.29 10.972,1.28 12.469,1.04 20.086,5.2 14.812,-6.88 13.008,-9.11 16.875,-19.43 -21.477,-9.63 -38.692,2.8 -60.176,-2.74 0.051,-0.72 -5.605,-0.77 -5.891,0.69 0.356,0.33 -2.515,5.15 -2.168,5.46 -9.254,17.75 -34.187,10.82 -47.363,7.01 -1.922,-14.25 12.473,-25.63 24.25,-30.48 15.938,-5.72 21.121,-1.07 21.133,-1.04 l 6.582,5.89 c 6.934,-25.29 15.937,-26.53 29.504,-36.86 -14.824,-5.41 -20.293,-9.87 -38.977,-8.4 -21.008,32.44 -84.05,46.64 -81.633,31.4 9.016,-33.59 55.547,-41.68 55.547,-41.68 0,0 -24.363,-9 -20.214,-16.85 4.164,-7.85 36.046,-12.77 31.527,-25.06 -33.254,14.78 -39.719,8.73 -17.082,-20.32 -27.942,-1.38 -21.707,28.75 -39.387,35.68 -12.808,-9.35 -5.183,-29.1 -5.183,-29.1 -6.418,5.07 -23.211,33.25 -37.059,29.79 -4.516,-3.46 -4.516,-18.7 6.582,-28.75 -13.535,-2.95 -35.117,-1.1 -38.457,-15.58 21.902,-16.71 45.027,-16.63 79.344,-12.34 0,0 6.269,0.12 12.793,2.29 6.535,2.18 16.289,-6.93 16.289,-6.93 -16.895,-3.76 -9.707,-9.35 -42.957,-15.93 -21.789,-10.43 -38.926,-23.96 -38.926,-45.76 13.516,-6.66 29.988,-13.1 38.926,-0.19 14.539,21.01 10.652,4.12 20.781,5.08 l 11.25,-3.57 c -9.172,-22.41 -60.141,-22.12 -50.051,-38.34 9.695,-15.59 25.293,-31.87 25.293,-31.87 0,0 -35.891,18.13 -46.074,5.2 -9.461,-12.04 11.789,-31.52 49.453,-39.98 -12.883,-7.86 -58.105,0.14 -30.742,-28.26 -32.559,-13.74 -21.934,-23.44 4.387,-16.51 l 12.468,-1.38 c -7.722,-5.41 -31.023,-16.13 -29.093,-24.48 1.378,-11.08 27.707,2.77 31.859,-5.54 1.851,-12.01 -12.707,-17.18 -13.984,-20.62 18.668,-11.79 29.617,16.7 46.367,0 -6.438,-12.28 -33.489,-9.83 -27.699,-28.01 10.316,-7.85 27.05,-4.42 37.355,-11.79 0,0 -13.699,-26.4 -6.594,-29.87 14.895,-7.27 28.789,16.19 33.946,17.66 -3.805,-30.48 21.925,-20.24 14.203,-40.87 -0.356,-11.06 -1.035,-26.32 10.398,-32.21 23.555,7.3 25.774,25.9 25.281,53.69 -0.172,9.7 27.129,-6.35 27.129,-6.35 16.629,-13.4 -28.172,-23.56 -14.843,-51.96 37.942,-5.31 37.942,27.02 68.882,33.02 13.5,-9.41 -5.76,-24.66 -10.27,-35.47 -19.32,-10.81 -42.839,2.22 -61.198,-35.19 26.32,-10.73 38.868,-1.92 47.798,2.77 8.39,6.05 7.41,8.98 13.85,11.43 0.65,-10.31 -1.93,-28.97 7.97,-33.25 8.66,0.69 9.35,3.81 16.63,8.66 7.62,-7.97 -12.13,-27.36 -0.35,-35.67 11.08,2.07 14.55,11.77 14.55,11.77 6.69,-8.85 14.2,-9 21.13,-6.58 3.81,9.35 4.66,31 -7.57,38.72 5.8,6.87 20.03,-6.16 26.27,-1.31 11.6,-14.25 -14.55,-41.57 4.85,-53 18.7,1.74 17.83,20.41 36.51,28.27 -3.23,-19.16 18.85,-33.07 -9.49,-47.32 0,-18.7 34.75,-13.15 18.01,-40.17 6.44,-10.82 15.13,-6.13 22.86,-4.16 l 16.62,18.7 c -4.5,-15.23 -6.14,-39.07 -1.63,-56.76 -5.8,-14.25 7.87,-30.52 -18.04,-42.74 -7.08,-35.38 -7.11,-71.32 -48.32,-93.91 -23.19,-43.73 -169.527,-20.63 -201.727,-63.86 7.723,-7.86 82.597,-5.35 92.257,-2.4 14.17,6.88 25.12,-5.41 39.94,-4.91 32.84,0 72.13,10.8 99.17,0 38.17,0.39 70.34,-0.94 104.79,-1.08 l 0.09,-0.36"
         style="fill:#33439f;fill-opacity:1;fill-rule:nonzero;stroke:none"
         id="path30" /><path
         d="m 1426.78,5092.96 c 0,69.47 32.92,115.54 101.08,115.54 66.62,0 99.55,-42.41 99.55,-115.54 0,-68.01 -32.16,-119.93 -99.55,-119.93 -64.33,0 -101.08,51.18 -101.08,119.93 z m 101.08,-200.19 c 121.78,0 203.04,89.76 203.04,200.19 0,116.27 -82.02,195.8 -203.04,195.8 -121.78,0 -204.57,-77.33 -204.57,-195.8 0,-116.28 84.32,-200.19 204.57,-200.19"
         style="fill:#ffffff;fill-opacity:1;fill-rule:nonzero;stroke:none"
         id="path32" /><path
         d="m 2024.81,5207.11 c -23,3.66 -45.22,8.79 -68.19,8.79 -40.39,0 -68.58,-9.52 -68.58,-29.28 0,-22.68 38.1,-40.98 80.81,-63.66 40.63,-21.95 96.59,-51.22 96.59,-117.08 0,-72.31 -64.39,-113.11 -162.16,-113.11 -44.37,0 -75.04,8.75 -111.83,16.76 v 80.25 c 28.36,-8.78 74.35,-24.14 115.64,-24.14 27.43,0 54.86,12.44 54.86,37.31 0,22.69 -32.76,36.59 -80.05,62.93 -42.92,21.23 -97.35,65.13 -97.35,120.74 0,65.71 65.92,102.14 154.54,102.14 28.99,0 57.36,-2.91 85.72,-6.33 v -75.32"
         style="fill:#ffffff;fill-opacity:1;fill-rule:nonzero;stroke:none"
         id="path34" /><path
         d="m 317.039,4905.44 c 2.297,42.41 3.84,75.31 3.84,134.54 v 203.26 c 0,73.11 -4.602,128.68 -15.352,182.8 h 134.258 c 0,-37.3 -3.84,-89.21 -3.84,-147.7 v -190.11 c 0,-53.37 8.45,-133.07 15.344,-182.79 h -134.25"
         style="fill:#ffffff;fill-opacity:1;fill-rule:nonzero;stroke:none"
         id="path36" /><path
         d="m 644.656,5082.37 c 0,74.94 31.496,126.13 96.77,126.13 60.676,0 102.91,-51.92 102.91,-125.78 0,-65.82 -33.027,-109.69 -98.313,-109.69 -64.492,0 -101.367,37.17 -101.367,109.34 z m 15.364,-336.46 c -7.676,56.26 -7.676,119.09 -7.676,139.55 v 43.79 c 27.644,-16.05 56.828,-36.48 119.035,-36.48 105.164,0 176.453,80.26 176.453,190.68 0,119.94 -73.594,205.31 -181.062,205.31 -74.497,0 -105.207,-35.75 -129.778,-62.74 -5.371,19.64 -7.676,36.41 -13.808,53.2 l -97.43,-7.31 c 12.273,-64.16 23.016,-123.93 23.016,-189.54 v -153.12 c 0,-54.02 -11.512,-155.58 -15.34,-190.65 l 126.59,7.31"
         style="fill:#ffffff;fill-opacity:1;fill-rule:nonzero;stroke:none"
         id="path38" /><path
         d="m 1230.71,5208.23 c -23,3.67 -36.95,7.67 -59.92,7.67 -40.38,0 -68.58,-9.52 -68.58,-29.28 0,-22.68 38.1,-40.98 80.82,-63.66 40.63,-21.95 96.59,-51.22 96.59,-117.08 0,-72.31 -64.41,-113.11 -162.17,-113.11 -44.37,0 -75.03,8.75 -111.82,16.76 v 80.25 c 28.35,-8.78 74.35,-24.14 115.63,-24.14 27.44,0 54.87,12.44 54.87,37.31 0,22.69 -32.76,36.59 -80.06,62.93 -42.91,21.23 -97.34,65.13 -97.34,120.74 0,65.71 65.92,102.14 154.54,102.14 28.99,0 63.91,-4.18 92.27,-7.6 l -14.83,-72.93"
         style="fill:#ffffff;fill-opacity:1;fill-rule:nonzero;stroke:none"
         id="path40" /><g
         id="g42"
         transform="scale(10)"><text
           transform="matrix(1,0,0,-1,34.6855,267.903)"
           style="font-variant:normal;font-weight:bold;font-size:12px;font-family:Arial;-inkscape-font-specification:Arial-BoldMT;writing-mode:lr-tb;fill:#1b1819;fill-opacity:1;fill-rule:nonzero;stroke:none"
           id="text46"><tspan
             x="0 8.0039997 16.667999 25.332001 32.664001 42 50.664001 58.667999 62.004002 68.676003 75.348 82.019997 88.692001"
             y="0"
             id="tspan44">PANTONE 2726C</tspan></text></g><path
         d="M 6.69922,2657.3 H 233.469 v 226.77 H 6.69922 V 2657.3"
         style="fill:#4855a9;fill-opacity:1;fill-rule:nonzero;stroke:none"
         id="path48" /><g
         id="g50"
         transform="scale(10)"><text
           transform="matrix(1,0,0,-1,34.6855,232.716)"
           style="font-variant:normal;font-weight:bold;font-size:12px;font-family:Arial;-inkscape-font-specification:Arial-BoldMT;writing-mode:lr-tb;fill:#1b1819;fill-opacity:1;fill-rule:nonzero;stroke:none"
           id="text54"><tspan
             x="0 8.0039997 16.667999 25.332001 32.664001 42 50.664001 58.667999 62.004002 68.676003 75.348 82.019997"
             y="0"
             id="tspan52">PANTONE 326C</tspan></text></g><path
         d="M 6.69922,2305.42 H 233.469 V 2532.2 H 6.69922 v -226.78"
         style="fill:#3ba8a7;fill-opacity:1;fill-rule:nonzero;stroke:none"
         id="path56" /><g
         id="g58"
         transform="scale(10)"><text
           transform="matrix(1,0,0,-1,34.6855,379.903)"
           style="font-variant:normal;font-weight:bold;font-size:12px;font-family:Arial;-inkscape-font-specification:Arial-BoldMT;writing-mode:lr-tb;fill:#1b1819;fill-opacity:1;fill-rule:nonzero;stroke:none"
           id="text62"><tspan
             x="0 8.6639996 12 18.672001 25.344 28.68 32.675999 36.012001 45.348 48.683998 55.355999 62.028 65.363998 69.360001 72.695999 81.360001 84.695999 91.367996 98.040001"
             y="0"
             id="tspan60">R 47 - G 70 - B 156</tspan></text><text
           transform="matrix(1,0,0,-1,0,413.903)"
           style="font-variant:normal;font-weight:bold;font-size:14px;font-family:Arial;-inkscape-font-specification:Arial-BoldMT;writing-mode:lr-tb;fill:#1b1819;fill-opacity:1;fill-rule:nonzero;stroke:none"
           id="text72"><tspan
             x="0 9.3380003 17.122 22.568001 30.351999 38.136002 46.689999 51.352001 55.243999 65.351997 76.244003"
             y="0"
             id="tspan64">Screen: RGB</tspan><tspan
             x="0 9.3380003 14.784 18.676001 27.23 31.892 36.554001 40.445999 50.554001 56 59.891998 63.784 67.676003 71.568001 79.351997 87.905998 92.568001 96.459999 105.798 113.582 122.136 129.92"
             y="111"
             id="tspan66">Print: Brilliant Paper</tspan><tspan
             x="0 9.3380003 14.784 18.676001 27.23 31.892 36.554001 40.445999 52.108002 59.891998 64.554001 69.216003 73.108002 82.445999 90.230003 98.783997 106.568"
             y="224"
             id="tspan68">Print: Matt Paper</tspan><tspan
             x="1 10.338 15.784 19.676001 28.23 32.891998 37.554001 41.445999 51.554001 63.216 72.554001"
             y="339"
             id="tspan70">Print: CMYK</tspan></text></g><path
         d="M 6.69922,3777.3 H 233.469 v 226.77 H 6.69922 V 3777.3"
         style="fill:#33439f;fill-opacity:1;fill-rule:nonzero;stroke:none"
         id="path74" /><path
         d="M 6.69922,3777.3 H 233.469 v 226.77 H 6.69922 Z"
         style="fill:none;stroke:#3948a4;stroke-width:2.5;stroke-linecap:butt;stroke-linejoin:miter;stroke-miterlimit:4;stroke-dasharray:none;stroke-opacity:1"
         id="path76" /><g
         id="g78"
         transform="scale(10)"><text
           transform="matrix(1,0,0,-1,34.6855,344.716)"
           style="font-variant:normal;font-weight:bold;font-size:12px;font-family:Arial;-inkscape-font-specification:Arial-BoldMT;writing-mode:lr-tb;fill:#1b1819;fill-opacity:1;fill-rule:nonzero;stroke:none"
           id="text82"><tspan
             x="0 8.6639996 12 18.672001 22.007999 26.004 29.34 38.675999 42.012001 48.683998 55.355999 62.028 65.363998 69.360001 72.695999 81.360001 84.695999 91.367996 98.040001"
             y="0"
             id="tspan80">R 0 - G 157 - B 156</tspan></text></g><path
         d="M 6.69922,3425.42 H 233.469 V 3652.2 H 6.69922 v -226.78"
         style="fill:#38a09c;fill-opacity:1;fill-rule:nonzero;stroke:none"
         id="path84" /><g
         id="g86"
         transform="scale(10)"><text
           transform="matrix(1,0,0,-1,35.0156,153.705)"
           style="font-variant:normal;font-weight:bold;font-size:12px;font-family:Arial;-inkscape-font-specification:Arial-BoldMT;writing-mode:lr-tb;fill:#1b1819;fill-opacity:1;fill-rule:nonzero;stroke:none"
           id="text90"><tspan
             x="0 8.0039997 16.667999 25.332001 32.664001 42 50.664001 58.667999 62.004002 68.676003 75.348 82.019997 88.692001"
             y="0"
             id="tspan88">PANTONE 2728U</tspan></text></g><path
         d="m 10,1515.32 h 226.77 v 226.77 H 10 v -226.77"
         style="fill:#5360b5;fill-opacity:1;fill-rule:nonzero;stroke:none"
         id="path92" /><g
         id="g94"
         transform="scale(10)"><text
           transform="matrix(1,0,0,-1,35.0156,118.518)"
           style="font-variant:normal;font-weight:bold;font-size:12px;font-family:Arial;-inkscape-font-specification:Arial-BoldMT;writing-mode:lr-tb;fill:#1b1819;fill-opacity:1;fill-rule:nonzero;stroke:none"
           id="text98"><tspan
             x="0 8.0039997 16.667999 25.332001 32.664001 42 50.664001 58.667999 62.004002 68.676003 75.348 82.019997 88.692001"
             y="0"
             id="tspan96">PANTONE 3272U</tspan></text></g><path
         d="m 10,1163.45 h 226.77 v 226.77 H 10 v -226.77"
         style="fill:#13a39d;fill-opacity:1;fill-rule:nonzero;stroke:none"
         id="path100" /><g
         id="g102"
         transform="scale(10)"><text
           transform="matrix(1,0,0,-1,35.0156,39.7051)"
           style="font-variant:normal;font-weight:bold;font-size:12px;font-family:Arial;-inkscape-font-specification:Arial-BoldMT;writing-mode:lr-tb;fill:#1b1819;fill-opacity:1;fill-rule:nonzero;stroke:none"
           id="text106"><tspan
             x="0 8.6639996 12 18.672001 25.344 28.68 39.348 42.683998 46.68 50.015999 60.012001 63.348 70.019997 76.692001 80.028"
             y="0"
             id="tspan104">C 90 % - M 80 %</tspan></text></g><path
         d="M 10,375.32 H 236.77 V 602.09 H 10 V 375.32"
         style="fill:#3948a4;fill-opacity:1;fill-rule:nonzero;stroke:none"
         id="path108" /><g
         id="g110"
         transform="scale(10)"><text
           transform="matrix(1,0,0,-1,35.0156,4.51797)"
           style="font-variant:normal;font-weight:bold;font-size:12px;font-family:Arial;-inkscape-font-specification:Arial-BoldMT;writing-mode:lr-tb;fill:#1b1819;fill-opacity:1;fill-rule:nonzero;stroke:none"
           id="text114"><tspan
             x="0 8.6639996 12 18.672001 25.344 28.68 39.348 42.683998 46.68 50.015999 58.02 61.355999 68.028 74.699997 78.036003"
             y="0"
             id="tspan112">C 94 % - Y 43 %</tspan></text></g><path
         d="M 10,23.4492 H 236.77 V 250.219 H 10 V 23.4492"
         style="fill:#0fafa9;fill-opacity:1;fill-rule:nonzero;stroke:none"
         id="path116" /></g></g></svg>
