<svg width="1928" height="260" xmlns="http://www.w3.org/2000/svg" xmlns:xlink="http://www.w3.org/1999/xlink" xml:space="preserve" overflow="hidden"><g transform="translate(-2150 -994)"><g><g><g><g><path d="M2682.55 875.705C2692.26 875.705 2699.68 878.085 2704.8 882.847 2709.92 887.608 2712.48 893.642 2712.48 900.948 2712.48 908.122 2709.92 914.124 2704.8 918.948 2699.68 923.777 2692.26 926.191 2682.55 926.191 2672.84 926.191 2665.46 923.777 2660.4 918.948 2655.34 914.124 2652.82 908.122 2652.82 900.948 2652.82 893.642 2655.34 887.608 2660.4 882.847 2665.46 878.085 2672.84 875.705 2682.55 875.705Z" fill="#FFFFFF" fill-rule="evenodd" transform="matrix(1 0 0 1.00064 1127.78 118.734)"/><path d="M1496.22 878.458 1674.3 878.458 1674.3 924.382 1551.58 924.382 1551.58 986.067 1662.68 986.067 1662.68 1030.41 1551.58 1030.41 1551.58 1097.82 1674.3 1097.82 1674.3 1143.74 1496.22 1143.74 1496.22 878.458Z" fill="#FFFFFF" fill-rule="evenodd" transform="matrix(1 0 0 1.00064 1127.78 118.734)"/><path d="M1941.42 878.458 1993.82 878.458 1993.82 1073.57C1993.82 1083.69 1995.28 1091.12 1998.19 1095.85 2001.1 1100.58 2007.58 1102.94 2017.64 1102.94L2029.54 1102.94 2029.54 1143.74 2015.85 1143.74C1996.27 1143.74 1981.08 1141.41 1970.3 1136.75 1959.51 1132.08 1952 1124.85 1947.77 1115.06 1943.54 1105.28 1941.42 1092.5 1941.42 1076.73L1941.42 878.458Z" fill="#FFFFFF" fill-rule="evenodd" transform="matrix(1 0 0 1.00064 1127.78 118.734)"/><path d="M2766.64 878.458 2818.85 878.458 2818.85 1040.07 2885.11 951.379 2941.66 951.379 2874.42 1040.07 2948.39 1143.74 2889.65 1143.74 2818.85 1042.24 2818.85 1143.74 2766.64 1143.74 2766.64 878.458Z" fill="#FFFFFF" fill-rule="evenodd" transform="matrix(1 0 0 1.00064 1127.78 118.734)"/><path d="M2519.61 905.996 2571.77 905.996 2571.77 951.333 2614.26 951.333 2614.26 991.556 2571.77 991.556 2571.77 1073.56C2571.77 1083.68 2573.19 1091.11 2576.02 1095.83 2578.86 1100.57 2585.27 1102.93 2595.29 1102.93L2614.06 1102.93 2614.06 1143.74 2593.71 1143.74C2574.21 1143.74 2559.1 1141.41 2548.36 1136.75 2537.62 1132.07 2530.14 1124.85 2525.93 1115.05 2521.71 1105.27 2519.61 1092.48 2519.61 1076.71L2519.61 991.556 2487.59 991.556 2487.59 951.333 2519.61 951.333 2519.61 905.996Z" fill="#FFFFFF" fill-rule="evenodd" transform="matrix(1 0 0 1.00064 1127.78 118.734)"/><path d="M2152.2 949.139C2179.88 949.139 2201.7 957.492 2217.65 974.189 2233.61 990.896 2241.58 1014.71 2241.58 1045.62 2241.58 1047.19 2241.52 1049.32 2241.38 1052.01 2241.25 1054.69 2241.12 1056.76 2240.99 1058.2L2112.44 1058.2C2112.71 1067.37 2114.26 1075.85 2117.08 1083.64 2119.92 1091.44 2124.44 1097.73 2130.63 1102.51 2136.83 1107.29 2145.01 1109.68 2155.16 1109.68 2165.57 1109.68 2173.85 1107.22 2179.98 1102.31 2186.11 1097.4 2189.24 1090.1 2189.37 1080.4L2241.19 1080.4C2240.53 1095.34 2236.54 1107.78 2229.22 1117.74 2221.9 1127.69 2211.92 1135.13 2199.26 1140.04 2186.6 1144.95 2171.9 1147.41 2155.16 1147.41 2135.12 1147.41 2117.98 1143.45 2103.74 1135.52 2089.5 1127.59 2078.62 1116.17 2071.11 1101.23 2063.59 1086.3 2059.83 1068.35 2059.83 1047.39 2059.83 1027.09 2063.5 1009.59 2070.81 994.925 2078.13 980.248 2088.71 968.957 2102.55 961.026 2116.4 953.104 2132.95 949.139 2152.2 949.139ZM2151.99 985.296C2140.92 985.296 2131.89 988.665 2124.9 995.412 2117.91 1002.16 2113.89 1012.08 2112.83 1025.19L2189.57 1025.19C2189.18 1011.82 2185.58 1001.84 2178.79 995.219 2172 988.601 2163.07 985.296 2151.99 985.296Z" fill="#FFFFFF" fill-rule="evenodd" transform="matrix(1 0 0 1.00064 1127.78 118.734)"/><path d="M1809.21 949.139C1824.82 949.139 1838.92 951.81 1851.51 957.143 1864.1 962.486 1874.17 970.554 1881.72 981.358 1889.26 992.172 1893.1 1005.67 1893.23 1021.88L1842.66 1021.88C1842.27 1012.14 1839.18 1004.32 1833.41 998.459 1827.63 992.594 1819.64 989.666 1809.4 989.666 1795.63 989.666 1785.59 994.87 1779.3 1005.28 1773 1015.69 1769.85 1030.38 1769.85 1049.36 1769.85 1061.48 1771.23 1071.87 1773.98 1080.49 1776.74 1089.13 1781.04 1095.71 1786.88 1100.27 1792.71 1104.81 1800.22 1107.09 1809.4 1107.09 1820.16 1107.09 1828.69 1103.89 1834.99 1097.49 1841.28 1091.11 1844.43 1082.05 1844.43 1070.31L1894.61 1070.31C1894.34 1086.92 1890.54 1100.99 1883.2 1112.52 1875.84 1124.05 1865.78 1132.75 1852.99 1138.62 1840.2 1144.48 1825.61 1147.41 1809.21 1147.41 1791.89 1147.41 1776.21 1143.89 1762.18 1136.84 1748.14 1129.79 1737.03 1119.01 1728.83 1104.52 1720.63 1090.02 1716.53 1071.64 1716.53 1049.36 1716.53 1026.96 1720.47 1008.35 1728.33 993.521 1736.21 978.696 1747.09 967.589 1761 960.209 1774.9 952.829 1790.97 949.139 1809.21 949.139Z" fill="#FFFFFF" fill-rule="evenodd" transform="matrix(1 0 0 1.00064 1127.78 118.734)"/><path d="M2374.22 949.139C2389.9 949.139 2404.08 951.81 2416.73 957.143 2429.39 962.486 2439.52 970.554 2447.1 981.358 2454.68 992.172 2458.54 1005.67 2458.66 1021.88L2407.84 1021.88C2407.44 1012.14 2404.34 1004.32 2398.54 998.459 2392.74 992.594 2384.7 989.666 2374.41 989.666 2360.57 989.666 2350.48 994.87 2344.14 1005.28 2337.82 1015.69 2334.65 1030.38 2334.65 1049.36 2334.65 1061.48 2336.04 1071.87 2338.81 1080.49 2341.57 1089.13 2345.9 1095.71 2351.76 1100.27 2357.63 1104.81 2365.18 1107.09 2374.41 1107.09 2385.22 1107.09 2393.79 1103.89 2400.12 1097.49 2406.45 1091.11 2409.62 1082.05 2409.62 1070.31L2460.05 1070.31C2459.78 1086.92 2455.97 1100.99 2448.58 1112.52 2441.2 1124.05 2431.07 1132.75 2418.22 1138.62 2405.36 1144.48 2390.69 1147.41 2374.22 1147.41 2356.8 1147.41 2341.05 1143.89 2326.94 1136.84 2312.83 1129.79 2301.65 1119.01 2293.42 1104.52 2285.18 1090.02 2281.05 1071.64 2281.05 1049.36 2281.05 1026.96 2285.01 1008.35 2292.92 993.521 2300.84 978.696 2311.78 967.589 2325.76 960.209 2339.73 952.829 2355.88 949.139 2374.22 949.139Z" fill="#FFFFFF" fill-rule="evenodd" transform="matrix(1 0 0 1.00064 1127.78 118.734)"/><path d="M2656.49 951.893 2708.81 951.893 2708.81 1143.74 2656.49 1143.74 2656.49 951.893Z" fill="#FFFFFF" fill-rule="evenodd" transform="matrix(1 0 0 1.00064 1127.78 118.734)"/><path d="M1673.88 1196.06C1676.31 1196.06 1678.71 1196.39 1681.06 1197.06 1683.42 1197.73 1685.58 1198.77 1687.54 1200.17 1689.49 1201.57 1691.11 1203.35 1692.38 1205.51 1693.64 1207.66 1694.42 1210.22 1694.68 1213.17L1684.15 1213.17C1683.98 1211.54 1683.45 1210.09 1682.58 1208.82 1681.7 1207.55 1680.52 1206.56 1679.03 1205.85 1677.54 1205.12 1675.75 1204.76 1673.66 1204.76 1670.63 1204.76 1668.2 1205.55 1666.34 1207.12 1664.49 1208.7 1663.14 1210.78 1662.29 1213.34 1661.43 1215.91 1661 1218.73 1661 1221.8 1661 1224.85 1661.43 1227.67 1662.29 1230.25 1663.14 1232.83 1664.51 1234.89 1666.4 1236.46 1668.29 1238.02 1670.78 1238.8 1673.88 1238.8 1676.17 1238.8 1678.12 1238.37 1679.73 1237.52 1681.33 1236.66 1682.59 1235.48 1683.49 1233.96 1684.4 1232.45 1684.92 1230.7 1685.07 1228.72L1674.13 1228.72 1674.13 1220.39 1695.42 1220.39 1695.42 1225.48C1695.42 1229.82 1694.58 1233.64 1692.91 1236.94 1691.24 1240.24 1688.81 1242.81 1685.59 1244.68 1682.39 1246.54 1678.49 1247.47 1673.88 1247.47 1669 1247.47 1664.81 1246.4 1661.3 1244.29 1657.79 1242.17 1655.1 1239.19 1653.24 1235.34 1651.37 1231.49 1650.44 1226.99 1650.44 1221.8 1650.44 1216.6 1651.37 1212.06 1653.24 1208.21 1655.1 1204.35 1657.79 1201.36 1661.3 1199.24 1664.81 1197.12 1669 1196.06 1673.88 1196.06Z" fill="#FFFFFF" fill-rule="evenodd" transform="matrix(1 0 0 1.00064 1127.78 118.734)"/><path d="M2475.21 1196.06C2480.25 1196.06 2484.51 1197.12 2487.98 1199.24 2491.44 1201.36 2494.09 1204.35 2495.9 1208.21 2497.7 1212.06 2498.6 1216.6 2498.6 1221.8 2498.6 1227.01 2497.7 1231.53 2495.9 1235.36 2494.09 1239.19 2491.44 1242.17 2487.98 1244.29 2484.51 1246.4 2480.25 1247.47 2475.21 1247.47 2470.18 1247.47 2465.92 1246.4 2462.43 1244.29 2458.95 1242.17 2456.31 1239.19 2454.5 1235.36 2452.69 1231.53 2451.79 1227.01 2451.79 1221.8 2451.79 1216.6 2452.69 1212.06 2454.5 1208.21 2456.31 1204.35 2458.95 1201.36 2462.43 1199.24 2465.92 1197.12 2470.18 1196.06 2475.21 1196.06ZM2475.21 1204.76C2472.19 1204.76 2469.74 1205.53 2467.87 1207.07 2466.01 1208.61 2464.64 1210.67 2463.78 1213.25 2462.91 1215.82 2462.48 1218.68 2462.48 1221.8 2462.48 1224.88 2462.91 1227.7 2463.78 1230.28 2464.64 1232.86 2466.01 1234.92 2467.87 1236.46 2469.74 1237.99 2472.19 1238.76 2475.21 1238.76 2478.29 1238.76 2480.76 1237.99 2482.61 1236.46 2484.47 1234.92 2485.82 1232.86 2486.67 1230.28 2487.52 1227.7 2487.95 1224.88 2487.95 1221.8 2487.95 1218.68 2487.52 1215.82 2486.67 1213.25 2485.82 1210.67 2484.47 1208.61 2482.61 1207.07 2480.76 1205.53 2478.29 1204.76 2475.21 1204.76Z" fill="#FFFFFF" fill-rule="evenodd" transform="matrix(1 0 0 1.00064 1127.78 118.734)"/><path d="M1598.6 1196.06C1602.11 1196.06 1605.3 1196.59 1608.18 1197.62 1611.06 1198.67 1613.36 1200.26 1615.1 1202.39 1616.82 1204.53 1617.69 1207.24 1617.69 1210.54L1606.86 1210.54C1606.89 1208.41 1606.09 1206.81 1604.46 1205.76 1602.83 1204.7 1600.88 1204.18 1598.6 1204.18 1596.37 1204.18 1594.51 1204.59 1593.02 1205.42 1591.53 1206.25 1590.79 1207.54 1590.79 1209.28 1590.79 1210.27 1591.1 1211.14 1591.73 1211.9 1592.35 1212.66 1593.52 1213.39 1595.22 1214.12 1596.92 1214.83 1599.39 1215.65 1602.62 1216.57 1606.45 1217.69 1609.59 1218.86 1612.03 1220.09 1614.47 1221.31 1616.28 1222.9 1617.46 1224.86 1618.64 1226.8 1619.23 1229.36 1619.23 1232.54 1619.23 1236.08 1618.35 1238.96 1616.57 1241.14 1614.81 1243.33 1612.43 1244.92 1609.42 1245.94 1606.41 1246.96 1603.01 1247.47 1599.2 1247.47 1595.42 1247.47 1591.98 1246.92 1588.89 1245.85 1585.8 1244.77 1583.35 1243.05 1581.55 1240.69 1579.74 1238.33 1578.84 1235.26 1578.84 1231.46L1589.62 1231.46C1589.73 1233.39 1590.19 1234.92 1591.03 1236.02 1591.87 1237.12 1593.01 1237.91 1594.45 1238.39 1595.89 1238.86 1597.54 1239.09 1599.39 1239.09 1601.17 1239.09 1602.73 1238.88 1604.09 1238.46 1605.44 1238.04 1606.5 1237.39 1607.26 1236.52 1608.03 1235.65 1608.4 1234.54 1608.4 1233.17 1608.4 1231.86 1608.08 1230.77 1607.45 1229.9 1606.81 1229.02 1605.66 1228.24 1604.01 1227.54 1602.36 1226.82 1600.02 1226.06 1597.02 1225.24 1593.54 1224.25 1590.53 1223.16 1587.99 1221.97 1585.45 1220.78 1583.48 1219.24 1582.09 1217.35 1580.7 1215.47 1580 1213.01 1580 1209.99 1580 1206.73 1580.8 1204.08 1582.39 1202.04 1583.98 1199.99 1586.18 1198.49 1588.98 1197.51 1591.79 1196.55 1594.99 1196.06 1598.6 1196.06Z" fill="#FFFFFF" fill-rule="evenodd" transform="matrix(1 0 0 1.00064 1127.78 118.734)"/><path d="M1816.62 1196.06C1820.04 1196.06 1823.16 1196.59 1825.98 1197.62 1828.8 1198.67 1831.05 1200.26 1832.74 1202.39 1834.43 1204.53 1835.27 1207.24 1835.27 1210.54L1824.7 1210.54C1824.72 1208.41 1823.93 1206.81 1822.35 1205.76 1820.76 1204.7 1818.85 1204.18 1816.62 1204.18 1814.44 1204.18 1812.63 1204.59 1811.17 1205.42 1809.71 1206.25 1808.98 1207.54 1808.98 1209.28 1808.98 1210.27 1809.28 1211.14 1809.9 1211.9 1810.51 1212.66 1811.65 1213.39 1813.31 1214.12 1814.98 1214.83 1817.39 1215.65 1820.55 1216.57 1824.29 1217.69 1827.36 1218.86 1829.75 1220.09 1832.13 1221.31 1833.9 1222.9 1835.05 1224.86 1836.2 1226.8 1836.78 1229.36 1836.78 1232.54 1836.78 1236.08 1835.91 1238.96 1834.19 1241.14 1832.46 1243.33 1830.13 1244.92 1827.19 1245.94 1824.26 1246.96 1820.92 1247.47 1817.21 1247.47 1813.51 1247.47 1810.15 1246.92 1807.13 1245.85 1804.11 1244.77 1801.71 1243.05 1799.95 1240.69 1798.19 1238.33 1797.31 1235.26 1797.31 1231.46L1807.84 1231.46C1807.94 1233.39 1808.4 1234.92 1809.22 1236.02 1810.04 1237.12 1811.16 1237.91 1812.56 1238.39 1813.97 1238.86 1815.58 1239.09 1817.39 1239.09 1819.12 1239.09 1820.66 1238.88 1821.98 1238.46 1823.3 1238.04 1824.34 1237.39 1825.08 1236.52 1825.83 1235.65 1826.2 1234.54 1826.2 1233.17 1826.2 1231.86 1825.89 1230.77 1825.27 1229.9 1824.64 1229.02 1823.52 1228.24 1821.91 1227.54 1820.29 1226.82 1818.01 1226.06 1815.08 1225.24 1811.67 1224.25 1808.73 1223.16 1806.25 1221.97 1803.76 1220.78 1801.84 1219.24 1800.48 1217.35 1799.12 1215.47 1798.44 1213.01 1798.44 1209.99 1798.44 1206.73 1799.22 1204.08 1800.78 1202.04 1802.33 1199.99 1804.47 1198.49 1807.22 1197.51 1809.96 1196.55 1813.09 1196.06 1816.62 1196.06Z" fill="#FFFFFF" fill-rule="evenodd" transform="matrix(1 0 0 1.00064 1127.78 118.734)"/><path d="M2658.81 1196.06C2662.32 1196.06 2665.51 1196.59 2668.39 1197.62 2671.27 1198.67 2673.57 1200.26 2675.31 1202.39 2677.03 1204.53 2677.89 1207.24 2677.89 1210.54L2667.07 1210.54C2667.1 1208.41 2666.3 1206.81 2664.67 1205.76 2663.04 1204.7 2661.09 1204.18 2658.81 1204.18 2656.58 1204.18 2654.73 1204.59 2653.23 1205.42 2651.74 1206.25 2651 1207.54 2651 1209.28 2651 1210.27 2651.31 1211.14 2651.93 1211.9 2652.56 1212.66 2653.72 1213.39 2655.43 1214.12 2657.13 1214.83 2659.6 1215.65 2662.83 1216.57 2666.66 1217.69 2669.8 1218.86 2672.24 1220.09 2674.68 1221.31 2676.49 1222.9 2677.67 1224.86 2678.85 1226.8 2679.44 1229.36 2679.44 1232.54 2679.44 1236.08 2678.55 1238.96 2676.78 1241.14 2675.02 1243.33 2672.63 1244.92 2669.63 1245.94 2666.62 1246.96 2663.22 1247.47 2659.41 1247.47 2655.62 1247.47 2652.19 1246.92 2649.1 1245.85 2646 1244.77 2643.55 1243.05 2641.75 1240.69 2639.95 1238.33 2639.05 1235.26 2639.05 1231.46L2649.83 1231.46C2649.93 1233.39 2650.4 1234.92 2651.24 1236.02 2652.08 1237.12 2653.22 1237.91 2654.66 1238.39 2656.1 1238.86 2657.75 1239.09 2659.6 1239.09 2661.38 1239.09 2662.94 1238.88 2664.3 1238.46 2665.65 1238.04 2666.7 1237.39 2667.47 1236.52 2668.24 1235.65 2668.61 1234.54 2668.61 1233.17 2668.61 1231.86 2668.29 1230.77 2667.66 1229.9 2667.02 1229.02 2665.87 1228.24 2664.22 1227.54 2662.56 1226.82 2660.24 1226.06 2657.23 1225.24 2653.75 1224.25 2650.74 1223.16 2648.2 1221.97 2645.66 1220.78 2643.68 1219.24 2642.3 1217.35 2640.91 1215.47 2640.21 1213.01 2640.21 1209.99 2640.21 1206.73 2641.01 1204.08 2642.6 1202.04 2644.19 1199.99 2646.39 1198.49 2649.19 1197.51 2652 1196.55 2655.2 1196.06 2658.81 1196.06Z" fill="#FFFFFF" fill-rule="evenodd" transform="matrix(1 0 0 1.00064 1127.78 118.734)"/><path d="M1503.57 1196.98 1513.67 1196.98 1513.67 1246.55 1503.57 1246.55 1503.57 1196.98Z" fill="#FFFFFF" fill-rule="evenodd" transform="matrix(1 0 0 1.00064 1127.78 118.734)"/><path d="M1525.6 1196.98 1535.87 1196.98 1558.91 1230.38 1558.91 1196.98 1568.74 1196.98 1568.74 1246.55 1558.47 1246.55 1535.39 1212.92 1535.39 1246.55 1525.6 1246.55 1525.6 1196.98Z" fill="#FFFFFF" fill-rule="evenodd" transform="matrix(1 0 0 1.00064 1127.78 118.734)"/><path d="M1629.32 1196.98 1640.34 1196.98 1640.34 1246.55 1629.32 1246.55 1629.32 1196.98Z" fill="#FFFFFF" fill-rule="evenodd" transform="matrix(1 0 0 1.00064 1127.78 118.734)"/><path d="M1705.51 1196.98 1715.77 1196.98 1715.77 1216.35 1736.6 1216.35 1736.6 1196.98 1746.82 1196.98 1746.82 1246.55 1736.6 1246.55 1736.6 1225.48 1715.77 1225.48 1715.77 1246.55 1705.51 1246.55 1705.51 1196.98Z" fill="#FFFFFF" fill-rule="evenodd" transform="matrix(1 0 0 1.00064 1127.78 118.734)"/><path d="M1754.16 1196.98 1791.8 1196.98 1791.8 1205.6 1778.3 1205.6 1778.3 1246.55 1767.67 1246.55 1767.67 1205.6 1754.16 1205.6 1754.16 1196.98Z" fill="#FFFFFF" fill-rule="evenodd" transform="matrix(1 0 0 1.00064 1127.78 118.734)"/><path d="M1855.14 1196.98 1892.77 1196.98 1892.77 1205.6 1879.27 1205.6 1879.27 1246.55 1868.64 1246.55 1868.64 1205.6 1855.14 1205.6 1855.14 1196.98Z" fill="#FFFFFF" fill-rule="evenodd" transform="matrix(1 0 0 1.00064 1127.78 118.734)"/><path d="M1901.03 1196.98 1911.51 1196.98 1911.51 1216.35 1932.81 1216.35 1932.81 1196.98 1943.26 1196.98 1943.26 1246.55 1932.81 1246.55 1932.81 1225.48 1911.51 1225.48 1911.51 1246.55 1901.03 1246.55 1901.03 1196.98Z" fill="#FFFFFF" fill-rule="evenodd" transform="matrix(1 0 0 1.00064 1127.78 118.734)"/><path d="M1967.61 1196.98 1978.53 1196.98 1996.5 1246.55 1985.57 1246.55 1982.01 1235.64 1963.97 1235.64 1960.38 1246.55 1949.68 1246.55 1967.61 1196.98ZM1973.02 1207.21 1966.54 1227.07 1979.46 1227.07 1973.02 1207.21Z" fill="#FFFFFF" fill-rule="evenodd" transform="matrix(1 0 0 1.00064 1127.78 118.734)"/><path d="M1997.41 1196.98 2034.13 1196.98 2034.13 1205.6 2020.96 1205.6 2020.96 1246.55 2010.59 1246.55 2010.59 1205.6 1997.41 1205.6 1997.41 1196.98Z" fill="#FFFFFF" fill-rule="evenodd" transform="matrix(1 0 0 1.00064 1127.78 118.734)"/><path d="M2058.92 1196.98 2069.17 1196.98 2069.17 1216.35 2090.01 1216.35 2090.01 1196.98 2100.22 1196.98 2100.22 1246.55 2090.01 1246.55 2090.01 1225.48 2069.17 1225.48 2069.17 1246.55 2058.92 1246.55 2058.92 1196.98Z" fill="#FFFFFF" fill-rule="evenodd" transform="matrix(1 0 0 1.00064 1127.78 118.734)"/><path d="M2112.16 1196.98 2146.12 1196.98 2146.12 1205.56 2122.71 1205.56 2122.71 1217.08 2143.91 1217.08 2143.91 1225.37 2122.71 1225.37 2122.71 1237.97 2146.12 1237.97 2146.12 1246.55 2112.16 1246.55 2112.16 1196.98Z" fill="#FFFFFF" fill-rule="evenodd" transform="matrix(1 0 0 1.00064 1127.78 118.734)"/><path d="M2156.22 1196.98 2166.84 1196.98 2166.84 1237.45 2188.34 1237.45 2188.34 1246.55 2156.22 1246.55 2156.22 1196.98Z" fill="#FFFFFF" fill-rule="evenodd" transform="matrix(1 0 0 1.00064 1127.78 118.734)"/><path d="M2197.52 1196.98 2217.23 1196.98C2220.52 1196.98 2223.51 1197.56 2226.24 1198.71 2228.95 1199.86 2231.12 1201.62 2232.73 1203.97 2234.35 1206.33 2235.16 1209.34 2235.16 1213 2235.16 1216.61 2234.35 1219.59 2232.73 1221.95 2231.12 1224.31 2228.95 1226.05 2226.24 1227.2 2223.51 1228.34 2220.52 1228.91 2217.23 1228.91L2208 1228.91 2208 1246.55 2197.52 1246.55 2197.52 1196.98ZM2208 1205.34 2208 1220.59 2216.27 1220.59C2218.67 1220.59 2220.65 1219.95 2222.19 1218.67 2223.73 1217.39 2224.5 1215.5 2224.5 1213 2224.5 1210.4 2223.72 1208.47 2222.15 1207.21 2220.59 1205.97 2218.63 1205.34 2216.27 1205.34L2208 1205.34Z" fill="#FFFFFF" fill-rule="evenodd" transform="matrix(1 0 0 1.00064 1127.78 118.734)"/><path d="M2260.86 1196.98 2293.91 1196.98 2293.91 1205.56 2271.13 1205.56 2271.13 1217.08 2291.75 1217.08 2291.75 1225.37 2271.13 1225.37 2271.13 1237.97 2293.91 1237.97 2293.91 1246.55 2260.86 1246.55 2260.86 1196.98Z" fill="#FFFFFF" fill-rule="evenodd" transform="matrix(1 0 0 1.00064 1127.78 118.734)"/><path d="M2304.92 1196.98 2316.91 1196.98 2330.52 1219.89 2343.9 1196.98 2355.41 1196.98 2355.41 1246.55 2345.16 1246.55 2345.16 1210.33 2333.36 1230.71 2326.93 1230.71 2314.94 1210.46 2314.94 1246.55 2304.92 1246.55 2304.92 1196.98Z" fill="#FFFFFF" fill-rule="evenodd" transform="matrix(1 0 0 1.00064 1127.78 118.734)"/><path d="M2368.26 1196.98 2387.49 1196.98C2390.69 1196.98 2393.61 1197.56 2396.26 1198.71 2398.93 1199.86 2401.04 1201.62 2402.62 1203.97 2404.19 1206.33 2404.97 1209.34 2404.97 1213 2404.97 1216.61 2404.19 1219.59 2402.62 1221.95 2401.04 1224.31 2398.93 1226.05 2396.26 1227.2 2393.61 1228.34 2390.69 1228.91 2387.49 1228.91L2378.47 1228.91 2378.47 1246.55 2368.26 1246.55 2368.26 1196.98ZM2378.47 1205.34 2378.47 1220.59 2386.54 1220.59C2388.89 1220.59 2390.82 1219.95 2392.33 1218.67 2393.82 1217.39 2394.57 1215.5 2394.57 1213 2394.57 1210.4 2393.81 1208.47 2392.29 1207.21 2390.76 1205.97 2388.85 1205.34 2386.54 1205.34L2378.47 1205.34Z" fill="#FFFFFF" fill-rule="evenodd" transform="matrix(1 0 0 1.00064 1127.78 118.734)"/><path d="M2415.07 1196.98 2425.39 1196.98 2425.39 1237.45 2446.28 1237.45 2446.28 1246.55 2415.07 1246.55 2415.07 1196.98Z" fill="#FFFFFF" fill-rule="evenodd" transform="matrix(1 0 0 1.00064 1127.78 118.734)"/><path d="M2501.36 1196.98 2512.78 1196.98 2523.35 1218.52 2533.96 1196.98 2545.42 1196.98 2528.64 1228.02 2528.64 1246.55 2518.06 1246.55 2518.06 1228.02 2501.36 1196.98Z" fill="#FFFFFF" fill-rule="evenodd" transform="matrix(1 0 0 1.00064 1127.78 118.734)"/><path d="M2553.68 1196.98 2587.64 1196.98 2587.64 1205.56 2564.24 1205.56 2564.24 1217.08 2585.43 1217.08 2585.43 1225.37 2564.24 1225.37 2564.24 1237.97 2587.64 1237.97 2587.64 1246.55 2553.68 1246.55 2553.68 1196.98Z" fill="#FFFFFF" fill-rule="evenodd" transform="matrix(1 0 0 1.00064 1127.78 118.734)"/><path d="M2598.66 1196.98 2631.7 1196.98 2631.7 1205.56 2608.93 1205.56 2608.93 1217.08 2629.55 1217.08 2629.55 1225.37 2608.93 1225.37 2608.93 1237.97 2631.7 1237.97 2631.7 1246.55 2598.66 1246.55 2598.66 1196.98Z" fill="#FFFFFF" fill-rule="evenodd" transform="matrix(1 0 0 1.00064 1127.78 118.734)"/><path d="M2697.79 1196.98 2734.51 1196.98 2734.51 1205.6 2721.34 1205.6 2721.34 1246.55 2710.97 1246.55 2710.97 1205.6 2697.79 1205.6 2697.79 1196.98Z" fill="#FFFFFF" fill-rule="evenodd" transform="matrix(1 0 0 1.00064 1127.78 118.734)"/><path d="M2743.69 1196.98 2753.94 1196.98 2753.94 1216.35 2774.78 1216.35 2774.78 1196.98 2785 1196.98 2785 1246.55 2774.78 1246.55 2774.78 1225.48 2753.94 1225.48 2753.94 1246.55 2743.69 1246.55 2743.69 1196.98Z" fill="#FFFFFF" fill-rule="evenodd" transform="matrix(1 0 0 1.00064 1127.78 118.734)"/><path d="M2796.93 1196.98 2817.42 1196.98C2820.57 1196.98 2823.39 1197.43 2825.91 1198.32 2828.43 1199.22 2830.43 1200.67 2831.9 1202.67 2833.37 1204.67 2834.12 1207.32 2834.12 1210.64 2834.12 1213.79 2833.26 1216.45 2831.57 1218.63 2829.88 1220.82 2827.32 1222.38 2823.91 1223.32 2825.97 1223.63 2827.64 1224.25 2828.9 1225.17 2830.17 1226.09 2831.19 1227.34 2831.98 1228.94 2832.77 1230.54 2833.47 1232.53 2834.12 1234.91L2837.32 1246.55 2826.6 1246.55 2824.17 1236.97C2823.58 1234.51 2822.92 1232.61 2822.19 1231.25 2821.47 1229.89 2820.58 1228.93 2819.52 1228.39 2818.47 1227.85 2817.12 1227.58 2815.46 1227.58L2807.28 1227.58 2807.28 1246.55 2796.93 1246.55 2796.93 1196.98ZM2807.28 1205.56 2807.28 1219.04 2815.65 1219.04C2817.27 1219.04 2818.67 1218.78 2819.83 1218.27 2821 1217.75 2821.9 1216.97 2822.52 1215.94 2823.15 1214.92 2823.47 1213.65 2823.47 1212.15 2823.47 1209.97 2822.81 1208.33 2821.49 1207.21 2820.18 1206.11 2818.46 1205.56 2816.32 1205.56L2807.28 1205.56Z" fill="#FFFFFF" fill-rule="evenodd" transform="matrix(1 0 0 1.00064 1127.78 118.734)"/><path d="M2847.42 1196.98 2857.51 1196.98 2857.51 1246.55 2847.42 1246.55 2847.42 1196.98Z" fill="#FFFFFF" fill-rule="evenodd" transform="matrix(1 0 0 1.00064 1127.78 118.734)"/><path d="M2863.94 1196.98 2875.11 1196.98 2887.29 1235.98 2899.51 1196.98 2910.75 1196.98 2893.36 1246.55 2880.99 1246.55 2863.94 1196.98Z" fill="#FFFFFF" fill-rule="evenodd" transform="matrix(1 0 0 1.00064 1127.78 118.734)"/><path d="M2917.18 1196.98 2950.22 1196.98 2950.22 1205.56 2927.45 1205.56 2927.45 1217.08 2948.07 1217.08 2948.07 1225.37 2927.45 1225.37 2927.45 1237.97 2950.22 1237.97 2950.22 1246.55 2917.18 1246.55 2917.18 1196.98Z" fill="#FFFFFF" fill-rule="evenodd" transform="matrix(1 0 0 1.00064 1127.78 118.734)"/></g></g></g></g><path d="M2261.5 995C2322.53 995 2372 1044.47 2372 1105.5 2372 1142.33 2372 1179.17 2372 1216 2335.17 1216 2298.33 1216 2261.5 1216 2200.47 1216 2151 1166.53 2151 1105.5 2151 1044.47 2200.47 995 2261.5 995Z" stroke="#FFFFFF" stroke-width="2.29167" stroke-miterlimit="8" fill="none" fill-rule="evenodd"/><path d="M2151 1259.5C2151 1198.47 2200.47 1149 2261.5 1149 2298.33 1149 2335.17 1149 2372 1149 2372 1185.83 2372 1222.67 2372 1259.5 2372 1320.53 2322.53 1370 2261.5 1370 2200.47 1370 2151 1320.53 2151 1259.5Z" stroke="#FFFFFF" stroke-width="2.29167" stroke-miterlimit="8" fill="none" fill-rule="evenodd"/><path d="M0 110.5C-2.81362e-14 49.4725 49.4725 0 110.5 0 147.333 0 184.166 0 221 0 221 36.8333 221 73.6667 221 110.5 221 171.527 171.527 221 110.5 221 49.4725 221 1.40681e-14 171.527 0 110.5Z" stroke="#FFFFFF" stroke-width="2.29167" stroke-miterlimit="8" fill="none" fill-rule="evenodd" transform="matrix(1.83697e-16 1 1 -1.83697e-16 2298 995)"/><path d="M0 110.5C-2.81363e-14 49.4725 49.4725 0 110.5 0 147.333 0 184.167 0 221 0 221 36.8333 221 73.6666 221 110.5 221 171.527 171.527 221 110.5 221 49.4725 221 1.40681e-14 171.527 0 110.5Z" stroke="#FFFFFF" stroke-width="2.29167" stroke-miterlimit="8" fill="none" fill-rule="evenodd" transform="matrix(-1 0 0 1 2519 1149)"/></g></svg>